<?xml version="1.0" encoding="UTF-8" standalone="no"?>
<svg
   xmlns:dc="http://purl.org/dc/elements/1.1/"
   xmlns:cc="http://creativecommons.org/ns#"
   xmlns:rdf="http://www.w3.org/1999/02/22-rdf-syntax-ns#"
   xmlns:svg="http://www.w3.org/2000/svg"
   xmlns="http://www.w3.org/2000/svg"
   viewBox="0 0 243.28 147.94667"
   height="147.94667"
   width="243.28"
   xml:space="preserve"
   id="svg2"
   version="1.1"><metadata
     id="metadata8"><rdf:RDF><cc:Work
         rdf:about=""><dc:format>image/svg+xml</dc:format><dc:type
           rdf:resource="http://purl.org/dc/dcmitype/StillImage" /></cc:Work></rdf:RDF></metadata><defs
     id="defs6"><clipPath
       id="clipPath18"
       clipPathUnits="userSpaceOnUse"><path
         id="path16"
         d="M 0,110.96 H 182.46 V 0 H 0 Z" /></clipPath><clipPath
       id="clipPath50"
       clipPathUnits="userSpaceOnUse"><path
         id="path48"
         d="M 0,110.96 H 182.46 V 0 H 0 Z" /></clipPath></defs><g
     transform="matrix(1.3333333,0,0,-1.3333333,0,147.94667)"
     id="g10"><g
       id="g12"><g
         clip-path="url(#clipPath18)"
         id="g14"><g
           transform="translate(22.5545,81.0083)"
           id="g20"><path
             id="path22"
             style="fill:#231f20;fill-opacity:1;fill-rule:nonzero;stroke:none"
             d="m 0,0 v -16.846 h 0.049 c 6.412,3.093 9.619,4.704 9.619,4.834 V 0 C 9.57,0.163 7.959,1.383 4.834,3.662 1.709,1.383 0.098,0.163 0,0 M 4.834,13.379 C 12.516,7.324 16.553,4.085 16.943,3.662 l 0.049,-0.244 v -48.121 c 0,-0.293 -0.586,-0.7 -1.758,-1.22 l -5.468,-3.028 -0.098,0.049 v 29.468 c -0.228,0 -3.451,-1.628 -9.668,-4.882 v -24.488 l -0.146,-0.147 c -4.46,2.442 -6.853,3.792 -7.178,4.053 V 3.418 c 0,0.325 0.813,1.074 2.441,2.246 6.153,4.948 9.391,7.52 9.717,7.715" /></g><g
           transform="translate(56.7342,94.2408)"
           id="g24"><path
             id="path26"
             style="fill:#231f20;fill-opacity:1;fill-rule:nonzero;stroke:none"
             d="m 0,0 h 0.098 l 12.158,-9.766 v -16.796 l -0.147,-0.147 c -4.785,2.344 -7.21,3.581 -7.275,3.711 v 9.57 L 0.098,-9.766 H 0 l -4.785,-3.662 v -12.011 c 0.065,-0.098 5.745,-2.963 17.041,-8.594 v -21.778 c -0.261,-0.261 -3.858,-2.278 -10.791,-6.055 0,-0.097 -0.114,-0.146 -0.342,-0.146 h -2.148 c -0.228,0 -3.939,2.034 -11.133,6.103 v 19.434 c 4.915,-2.343 7.373,-3.597 7.373,-3.759 v -10.743 c 0,-0.097 1.627,-0.911 4.883,-2.441 3.125,1.53 4.703,2.344 4.736,2.441 v 13.233 c -0.033,0.098 -5.697,2.946 -16.992,8.545 v 19.433 z" /></g><g
           transform="translate(81.1971,81.0083)"
           id="g28"><path
             id="path30"
             style="fill:#231f20;fill-opacity:1;fill-rule:nonzero;stroke:none"
             d="m 0,0 v -16.846 h 0.049 c 6.412,3.093 9.619,4.704 9.619,4.834 V 0 C 9.57,0.163 7.959,1.383 4.834,3.662 1.709,1.383 0.098,0.163 0,0 M 4.834,13.379 C 12.516,7.324 16.553,4.085 16.943,3.662 l 0.049,-0.244 v -48.121 c 0,-0.293 -0.586,-0.7 -1.758,-1.22 l -5.468,-3.028 -0.098,0.049 v 29.468 c -0.229,0 -3.451,-1.628 -9.668,-4.882 v -24.488 l -0.146,-0.147 c -4.46,2.442 -6.853,3.792 -7.178,4.053 V 3.418 c 0,0.325 0.813,1.074 2.441,2.246 6.153,4.948 9.391,7.52 9.717,7.715" /></g><g
           transform="translate(115.5233,94.1919)"
           id="g32"><path
             id="path34"
             style="fill:#231f20;fill-opacity:1;fill-rule:nonzero;stroke:none"
             d="m 0,0 c 7.747,-6.12 11.832,-9.408 12.256,-9.863 v -47.969 c 0,-0.129 -1.693,-1.09 -5.078,-2.88 l -2.198,-1.27 -0.146,0.147 v 48.407 l -4.736,3.662 c -3.125,-2.278 -4.753,-3.499 -4.883,-3.662 v -48.407 l -0.147,-0.147 -7.226,4.102 v 48.114 z" /></g><g
           transform="translate(139.7908,81.0083)"
           id="g36"><path
             id="path38"
             style="fill:#231f20;fill-opacity:1;fill-rule:nonzero;stroke:none"
             d="m 0,0 v -16.846 h 0.049 c 6.412,3.093 9.619,4.704 9.619,4.834 V 0 C 9.57,0.163 7.959,1.383 4.834,3.662 1.709,1.383 0.098,0.163 0,0 M 4.834,13.379 C 12.516,7.324 16.553,4.085 16.943,3.662 L 16.992,3.418 V -44.55 c 0,-0.293 -0.586,-0.7 -1.758,-1.221 l -5.468,-3.027 -0.098,0.048 v 29.316 c -0.229,0 -3.451,-1.628 -9.668,-4.882 v -24.336 l -0.146,-0.146 c -4.46,2.441 -6.853,3.792 -7.178,4.052 V 3.418 c 0,0.325 0.813,1.074 2.441,2.246 6.153,4.948 9.391,7.52 9.717,7.715" /></g></g></g><text
       id="text42"
       style="font-variant:normal;font-weight:normal;font-stretch:normal;font-size:19.31489944px;font-family:'Agency FB';-inkscape-font-specification:AgencyFB-Reg;writing-mode:lr-tb;fill:#231f20;fill-opacity:1;fill-rule:nonzero;stroke:none"
       transform="matrix(1,0,0,-0.99522131,85.5864,13.8789)"><tspan
         id="tspan40"
         y="0"
         x="0 7.7259598 14.35097 22.888157 29.397278 36.292698 40.136364 48.209991 56.689232 64.936691">ATHLEISURE</tspan></text>
<g
       id="g44"><g
         clip-path="url(#clipPath50)"
         id="g46"><g
           transform="translate(169.326,88.0318)"
           id="g52"><path
             id="path54"
             style="fill:#231f20;fill-opacity:1;fill-rule:nonzero;stroke:none"
             d="M 0,0 C 0.002,2.686 -2.183,4.883 -4.859,4.888 -7.561,4.894 -9.76,2.708 -9.762,0.016 -9.764,-2.67 -7.579,-4.868 -4.902,-4.873 -2.201,-4.878 -0.002,-2.692 0,0 m -4.896,-6.097 c -3.384,0.003 -6.094,2.729 -6.089,6.126 0.004,3.382 2.733,6.089 6.133,6.083 C -1.473,6.106 1.23,3.374 1.224,-0.028 1.217,-3.393 -1.513,-6.1 -4.896,-6.097" /></g><g
           transform="translate(163.431,88.5035)"
           id="g56"><path
             id="path58"
             style="fill:#231f20;fill-opacity:1;fill-rule:nonzero;stroke:none"
             d="M 0,0 C 0.383,0.025 0.75,0.021 1.107,0.08 1.489,0.142 1.659,0.438 1.648,0.915 1.64,1.325 1.452,1.601 1.08,1.642 0.729,1.681 0.371,1.65 0,1.65 Z m 2.086,-0.528 c 0.599,-0.218 0.876,-0.689 1.122,-1.19 0.291,-0.589 0.586,-1.175 0.902,-1.808 -0.583,0 -1.12,-0.006 -1.657,0.008 -0.062,10e-4 -0.142,0.1 -0.179,0.171 -0.245,0.483 -0.475,0.972 -0.72,1.455 -0.36,0.71 -0.731,0.891 -1.567,0.762 v -2.377 h -1.629 v 6.348 c 0.01,0.007 0.024,0.026 0.038,0.026 C -0.557,2.855 0.491,2.847 1.538,2.823 1.745,2.818 1.956,2.766 2.157,2.707 2.888,2.49 3.245,2.007 3.288,1.199 3.33,0.427 2.988,-0.15 2.32,-0.436 2.256,-0.463 2.19,-0.487 2.086,-0.528" /></g></g></g></g></svg>